<mxfile host="app.diagrams.net" modified="2021-03-11T11:05:35.653Z" agent="5.0 (Windows NT 10.0; Win64; x64) AppleWebKit/537.36 (KHTML, like Gecko) Chrome/88.0.4324.190 Safari/537.36" etag="W5SctLrD6XcTvc_glYlw" version="14.4.7" type="github">
  <diagram id="C5RBs43oDa-KdzZeNtuy" name="Page-1">
    <mxGraphModel dx="942" dy="1793" grid="1" gridSize="10" guides="1" tooltips="1" connect="1" arrows="1" fold="1" page="1" pageScale="1" pageWidth="827" pageHeight="1169" math="0" shadow="0">
      <root>
        <mxCell id="WIyWlLk6GJQsqaUBKTNV-0" />
        <mxCell id="WIyWlLk6GJQsqaUBKTNV-1" parent="WIyWlLk6GJQsqaUBKTNV-0" />
        <mxCell id="6U0uWh2W63vgPzRZf-M2-0" value="Nginx:80, 443&lt;br&gt;Letsencrypt certs" style="rounded=0;whiteSpace=wrap;html=1;" vertex="1" parent="WIyWlLk6GJQsqaUBKTNV-1">
          <mxGeometry x="70" y="110" width="190" height="90" as="geometry" />
        </mxCell>
        <mxCell id="6U0uWh2W63vgPzRZf-M2-1" value="Jenkins, MongoDB&lt;br&gt;Frontend&lt;br&gt;Backend&lt;br&gt;Monitoring" style="rounded=0;whiteSpace=wrap;html=1;" vertex="1" parent="WIyWlLk6GJQsqaUBKTNV-1">
          <mxGeometry x="420" y="110" width="376" height="90" as="geometry" />
        </mxCell>
        <mxCell id="6U0uWh2W63vgPzRZf-M2-2" value="AWS" style="text;html=1;align=center;verticalAlign=middle;resizable=0;points=[];autosize=1;" vertex="1" parent="WIyWlLk6GJQsqaUBKTNV-1">
          <mxGeometry x="140" y="80" width="40" height="20" as="geometry" />
        </mxCell>
        <mxCell id="6U0uWh2W63vgPzRZf-M2-3" value="MS Azure" style="text;html=1;align=center;verticalAlign=middle;resizable=0;points=[];autosize=1;" vertex="1" parent="WIyWlLk6GJQsqaUBKTNV-1">
          <mxGeometry x="573" y="80" width="70" height="20" as="geometry" />
        </mxCell>
        <mxCell id="6U0uWh2W63vgPzRZf-M2-5" value="" style="endArrow=classic;html=1;" edge="1" parent="WIyWlLk6GJQsqaUBKTNV-1">
          <mxGeometry width="50" height="50" relative="1" as="geometry">
            <mxPoint x="419" y="154.5" as="sourcePoint" />
            <mxPoint x="259" y="154.5" as="targetPoint" />
          </mxGeometry>
        </mxCell>
        <mxCell id="6U0uWh2W63vgPzRZf-M2-6" value="Http with ports for AWS IP" style="text;html=1;align=center;verticalAlign=middle;resizable=0;points=[];autosize=1;" vertex="1" parent="WIyWlLk6GJQsqaUBKTNV-1">
          <mxGeometry x="264" y="120" width="150" height="20" as="geometry" />
        </mxCell>
        <mxCell id="6U0uWh2W63vgPzRZf-M2-9" value="&lt;b&gt;NEXUS&lt;/b&gt;" style="rounded=0;whiteSpace=wrap;html=1;" vertex="1" parent="WIyWlLk6GJQsqaUBKTNV-1">
          <mxGeometry x="420" y="230" width="380" height="60" as="geometry" />
        </mxCell>
        <mxCell id="6U0uWh2W63vgPzRZf-M2-10" value="" style="endArrow=classic;html=1;entryX=1;entryY=0.75;entryDx=0;entryDy=0;exitX=-0.011;exitY=0.133;exitDx=0;exitDy=0;exitPerimeter=0;" edge="1" parent="WIyWlLk6GJQsqaUBKTNV-1" source="6U0uWh2W63vgPzRZf-M2-9" target="6U0uWh2W63vgPzRZf-M2-0">
          <mxGeometry width="50" height="50" relative="1" as="geometry">
            <mxPoint x="400" y="230" as="sourcePoint" />
            <mxPoint x="440" y="270" as="targetPoint" />
          </mxGeometry>
        </mxCell>
        <mxCell id="6U0uWh2W63vgPzRZf-M2-11" value="Http with ports for AWS IP" style="text;html=1;align=center;verticalAlign=middle;resizable=0;points=[];autosize=1;rotation=0;" vertex="1" parent="WIyWlLk6GJQsqaUBKTNV-1">
          <mxGeometry x="390" y="210" width="150" height="20" as="geometry" />
        </mxCell>
        <mxCell id="6U0uWh2W63vgPzRZf-M2-13" value="" style="endArrow=classic;html=1;exitX=0.126;exitY=-0.022;exitDx=0;exitDy=0;exitPerimeter=0;" edge="1" parent="WIyWlLk6GJQsqaUBKTNV-1" source="6U0uWh2W63vgPzRZf-M2-0">
          <mxGeometry width="50" height="50" relative="1" as="geometry">
            <mxPoint x="390" y="320" as="sourcePoint" />
            <mxPoint x="94" y="50" as="targetPoint" />
          </mxGeometry>
        </mxCell>
        <mxCell id="6U0uWh2W63vgPzRZf-M2-15" value="Client" style="whiteSpace=wrap;html=1;aspect=fixed;" vertex="1" parent="WIyWlLk6GJQsqaUBKTNV-1">
          <mxGeometry x="60" y="-20" width="70" height="70" as="geometry" />
        </mxCell>
        <mxCell id="6U0uWh2W63vgPzRZf-M2-16" value="" style="endArrow=classic;startArrow=classic;html=1;entryX=0.878;entryY=0;entryDx=0;entryDy=0;entryPerimeter=0;" edge="1" parent="WIyWlLk6GJQsqaUBKTNV-1" target="6U0uWh2W63vgPzRZf-M2-1">
          <mxGeometry width="50" height="50" relative="1" as="geometry">
            <mxPoint x="750" y="30" as="sourcePoint" />
            <mxPoint x="440" y="170" as="targetPoint" />
          </mxGeometry>
        </mxCell>
        <mxCell id="6U0uWh2W63vgPzRZf-M2-17" value="" style="endArrow=classic;startArrow=classic;html=1;exitX=1.005;exitY=0.617;exitDx=0;exitDy=0;exitPerimeter=0;" edge="1" parent="WIyWlLk6GJQsqaUBKTNV-1" source="6U0uWh2W63vgPzRZf-M2-9">
          <mxGeometry width="50" height="50" relative="1" as="geometry">
            <mxPoint x="390" y="220" as="sourcePoint" />
            <mxPoint x="800" y="30" as="targetPoint" />
          </mxGeometry>
        </mxCell>
        <mxCell id="6U0uWh2W63vgPzRZf-M2-18" value="Azure Shared Storage" style="rounded=0;whiteSpace=wrap;html=1;" vertex="1" parent="WIyWlLk6GJQsqaUBKTNV-1">
          <mxGeometry x="660" y="-30" width="150" height="60" as="geometry" />
        </mxCell>
        <mxCell id="6U0uWh2W63vgPzRZf-M2-19" value="" style="endArrow=classic;html=1;exitX=0.303;exitY=-0.022;exitDx=0;exitDy=0;exitPerimeter=0;" edge="1" parent="WIyWlLk6GJQsqaUBKTNV-1" source="6U0uWh2W63vgPzRZf-M2-1" target="6U0uWh2W63vgPzRZf-M2-20">
          <mxGeometry width="50" height="50" relative="1" as="geometry">
            <mxPoint x="390" y="220" as="sourcePoint" />
            <mxPoint x="534" y="40" as="targetPoint" />
          </mxGeometry>
        </mxCell>
        <mxCell id="6U0uWh2W63vgPzRZf-M2-20" value="Backup" style="rounded=0;whiteSpace=wrap;html=1;" vertex="1" parent="WIyWlLk6GJQsqaUBKTNV-1">
          <mxGeometry x="523" y="-30" width="120" height="60" as="geometry" />
        </mxCell>
        <mxCell id="6U0uWh2W63vgPzRZf-M2-21" value="" style="endArrow=classic;html=1;exitX=0.708;exitY=0;exitDx=0;exitDy=0;exitPerimeter=0;" edge="1" parent="WIyWlLk6GJQsqaUBKTNV-1" source="6U0uWh2W63vgPzRZf-M2-9" target="6U0uWh2W63vgPzRZf-M2-20">
          <mxGeometry width="50" height="50" relative="1" as="geometry">
            <mxPoint x="390" y="220" as="sourcePoint" />
            <mxPoint x="440" y="170" as="targetPoint" />
          </mxGeometry>
        </mxCell>
        <mxCell id="6U0uWh2W63vgPzRZf-M2-22" value="CosmosDB, work, but not used" style="rounded=0;whiteSpace=wrap;html=1;" vertex="1" parent="WIyWlLk6GJQsqaUBKTNV-1">
          <mxGeometry x="390" y="-30" width="120" height="60" as="geometry" />
        </mxCell>
      </root>
    </mxGraphModel>
  </diagram>
</mxfile>
